Rokkitt-Regular.ufo
<glyph name="fj" format="1">
  <advance width="1151"/>
  <unicode hex="0000"/>
  <outline>
    <contour>
      <point x="632" y="-303" type="line"/>
      <point x="723" y="-303" type="line" smooth="yes"/>
      <point x="944" y="-303"/>
      <point x="1006" y="-221"/>
      <point x="1006" y="19" type="curve" smooth="yes"/>
      <point x="1006" y="804" type="line"/>
      <point x="501" y="804" type="line"/>
      <point x="501" y="688" type="line"/>
      <point x="858" y="688" type="line"/>
      <point x="858" y="-8" type="line" smooth="yes"/>
      <point x="858" y="-113"/>
      <point x="840" y="-179"/>
      <point x="739" y="-179" type="curve" smooth="yes"/>
      <point x="632" y="-179" type="line"/>
    </contour>
    <contour>
      <point x="927" y="979" type="curve" smooth="yes"/>
      <point x="978" y="979"/>
      <point x="1019" y="1016"/>
      <point x="1019" y="1066" type="curve" smooth="yes"/>
      <point x="1019" y="1116"/>
      <point x="978" y="1153"/>
      <point x="927" y="1153" type="curve" smooth="yes"/>
      <point x="876" y="1153"/>
      <point x="835" y="1116"/>
      <point x="835" y="1066" type="curve" smooth="yes"/>
      <point x="835" y="1016"/>
      <point x="876" y="979"/>
    </contour>
    <component base="f"/>
  </outline>
</glyph>
<glyph name="percent" format="1">
  <advance width="1585"/>
  <unicode hex="0025"/>
  <outline>
    <contour>
      <point x="390" y="673" type="curve" smooth="yes"/>
      <point x="286" y="673"/>
      <point x="184" y="743"/>
      <point x="184" y="880" type="curve" smooth="yes"/>
      <point x="184" y="1015"/>
      <point x="286" y="1085"/>
      <point x="390" y="1085" type="curve" smooth="yes"/>
      <point x="493" y="1085"/>
      <point x="598" y="1015"/>
      <point x="598" y="880" type="curve" smooth="yes"/>
      <point x="598" y="743"/>
      <point x="493" y="673"/>
    </contour>
    <contour>
      <point x="390" y="582" type="curve" smooth="yes"/>
      <point x="543" y="582"/>
      <point x="698" y="683"/>
      <point x="698" y="880" type="curve" smooth="yes"/>
      <point x="698" y="1076"/>
      <point x="543" y="1174"/>
      <point x="390" y="1174" type="curve" smooth="yes"/>
      <point x="234" y="1174"/>
      <point x="84" y="1074"/>
      <point x="84" y="880" type="curve" smooth="yes"/>
      <point x="84" y="683"/>
      <point x="235" y="582"/>
    </contour>
    <contour>
      <point x="308" y="-47" type="line"/>
      <point x="1357" y="1164" type="line"/>
      <point x="1299" y="1222" type="line"/>
      <point x="246" y="17" type="line"/>
    </contour>
    <contour>
      <point x="1189" y="69" type="curve" smooth="yes"/>
      <point x="1085" y="69"/>
      <point x="983" y="139"/>
      <point x="983" y="276" type="curve" smooth="yes"/>
      <point x="983" y="411"/>
      <point x="1085" y="481"/>
      <point x="1189" y="481" type="curve" smooth="yes"/>
      <point x="1292" y="481"/>
      <point x="1397" y="411"/>
      <point x="1397" y="276" type="curve" smooth="yes"/>
      <point x="1397" y="139"/>
      <point x="1292" y="69"/>
    </contour>
    <contour>
      <point x="1189" y="-22" type="curve" smooth="yes"/>
      <point x="1342" y="-22"/>
      <point x="1497" y="79"/>
      <point x="1497" y="276" type="curve" smooth="yes"/>
      <point x="1497" y="472"/>
      <point x="1342" y="570"/>
      <point x="1189" y="570" type="curve" smooth="yes"/>
      <point x="1033" y="570"/>
      <point x="883" y="470"/>
      <point x="883" y="276" type="curve" smooth="yes"/>
      <point x="883" y="79"/>
      <point x="1034" y="-22"/>
    </contour>
  </outline>
</glyph>
<glyph name="zero" format="1">
  <advance width="1006"/>
  <unicode hex="0030"/>
  <outline>
    <contour>
      <point x="499" y="101" type="curve" smooth="yes"/>
      <point x="289" y="105"/>
      <point x="242" y="290"/>
      <point x="242" y="576" type="curve" smooth="yes"/>
      <point x="242" y="832"/>
      <point x="299" y="1051"/>
      <point x="502" y="1051" type="curve" smooth="yes"/>
      <point x="724" y="1051"/>
      <point x="765" y="835"/>
      <point x="765" y="575" type="curve" smooth="yes"/>
      <point x="765" y="312"/>
      <point x="726" y="101"/>
    </contour>
    <contour>
      <point x="503" y="-18" type="curve" smooth="yes"/>
      <point x="809" y="-18"/>
      <point x="917" y="230"/>
      <point x="918" y="577" type="curve" smooth="yes"/>
      <point x="918" y="902"/>
      <point x="808" y="1171"/>
      <point x="503" y="1171" type="curve" smooth="yes"/>
      <point x="196" y="1171"/>
      <point x="88" y="923"/>
      <point x="88" y="577" type="curve" smooth="yes"/>
      <point x="88" y="252"/>
      <point x="198" y="-18"/>
    </contour>
  </outline>
</glyph>
<glyph name="six" format="1">
  <advance width="1048"/>
  <unicode hex="0036"/>
  <outline>
    <contour>
      <point x="535" y="-22" type="curve" smooth="yes"/>
      <point x="758" y="-22"/>
      <point x="925" y="146"/>
      <point x="925" y="369" type="curve" smooth="yes"/>
      <point x="925" y="587"/>
      <point x="756" y="729"/>
      <point x="586" y="736" type="curve" smooth="yes"/>
      <point x="535" y="738"/>
      <point x="484" y="728"/>
      <point x="437" y="704" type="curve"/>
      <point x="740" y="1149" type="line"/>
      <point x="640" y="1223" type="line"/>
      <point x="229" y="598" type="line" smooth="yes"/>
      <point x="191" y="540"/>
      <point x="151" y="448"/>
      <point x="151" y="369" type="curve" smooth="yes"/>
      <point x="151" y="146"/>
      <point x="312" y="-22"/>
    </contour>
    <contour>
      <point x="535" y="98" type="curve" smooth="yes"/>
      <point x="395" y="98"/>
      <point x="277" y="208"/>
      <point x="287" y="373" type="curve" smooth="yes"/>
      <point x="296" y="516"/>
      <point x="399" y="628"/>
      <point x="539" y="628" type="curve" smooth="yes"/>
      <point x="689" y="628"/>
      <point x="789" y="522"/>
      <point x="789" y="369" type="curve" smooth="yes"/>
      <point x="789" y="214"/>
      <point x="675" y="98"/>
    </contour>
  </outline>
</glyph>
<glyph name="at" format="1">
  <advance width="1418"/>
  <unicode hex="0040"/>
  <outline>
    <contour>
      <point x="777" y="-143" type="curve" smooth="yes"/>
      <point x="954" y="-143"/>
      <point x="1103" y="-96"/>
      <point x="1224" y="-3" type="curve"/>
      <point x="1155" y="81" type="line"/>
      <point x="1056" y="5"/>
      <point x="922" y="-33"/>
      <point x="756" y="-33" type="curve" smooth="yes"/>
      <point x="429" y="-33"/>
      <point x="210" y="164"/>
      <point x="210" y="490" type="curve" smooth="yes"/>
      <point x="210" y="807"/>
      <point x="438" y="1058"/>
      <point x="752" y="1058" type="curve" smooth="yes"/>
      <point x="1026" y="1058"/>
      <point x="1232" y="893"/>
      <point x="1232" y="637" type="curve" smooth="yes"/>
      <point x="1232" y="475"/>
      <point x="1126" y="258"/>
      <point x="992" y="258" type="curve" smooth="yes"/>
      <point x="944.526" y="258"/>
      <point x="966.818" y="316.818"/>
      <point x="978" y="369" type="curve" smooth="yes"/>
      <point x="1088" y="879" type="line"/>
      <point x="952" y="879" type="line"/>
      <point x="930" y="766" type="line"/>
      <point x="901" y="847"/>
      <point x="828" y="897"/>
      <point x="730" y="897" type="curve" smooth="yes"/>
      <point x="505" y="897"/>
      <point x="359" y="691"/>
      <point x="359" y="471" type="curve" smooth="yes"/>
      <point x="359" y="279"/>
      <point x="461" y="141"/>
      <point x="642" y="141" type="curve" smooth="yes"/>
      <point x="724" y="141"/>
      <point x="793" y="182"/>
      <point x="848" y="263" type="curve"/>
      <point x="855" y="193"/>
      <point x="883" y="141"/>
      <point x="950" y="141" type="curve" smooth="yes"/>
      <point x="1204" y="141"/>
      <point x="1357" y="384"/>
      <point x="1357" y="644" type="curve" smooth="yes"/>
      <point x="1357" y="976"/>
      <point x="1102" y="1172"/>
      <point x="754" y="1172" type="curve" smooth="yes"/>
      <point x="371" y="1172"/>
      <point x="76" y="864"/>
      <point x="76" y="494" type="curve" smooth="yes"/>
      <point x="76" y="104"/>
      <point x="362" y="-143"/>
    </contour>
    <contour>
      <point x="663" y="250" type="curve" smooth="yes"/>
      <point x="548" y="250"/>
      <point x="495" y="338"/>
      <point x="495" y="450" type="curve" smooth="yes"/>
      <point x="495" y="613"/>
      <point x="570" y="784"/>
      <point x="729" y="784" type="curve" smooth="yes"/>
      <point x="820" y="784"/>
      <point x="888" y="704"/>
      <point x="888" y="612" type="curve" smooth="yes"/>
      <point x="888" y="455"/>
      <point x="813" y="250"/>
    </contour>
  </outline>
</glyph>
<glyph name="E" format="1">
  <advance width="1190"/>
  <unicode hex="0045"/>
  <outline>
    <contour>
      <point x="776" y="410" type="line"/>
      <point x="877" y="410" type="line"/>
      <point x="877" y="769" type="line"/>
      <point x="777" y="769" type="line"/>
      <point x="777" y="655" type="line"/>
      <point x="345" y="655" type="line"/>
      <point x="347" y="526" type="line"/>
      <point x="776" y="526" type="line"/>
    </contour>
    <contour>
      <point x="341" y="0" type="line"/>
      <point x="1097" y="0" type="line"/>
      <point x="1097" y="328" type="line"/>
      <point x="968" y="328" type="line"/>
      <point x="968" y="116" type="line"/>
      <point x="341" y="116" type="line"/>
    </contour>
    <contour>
      <point x="961" y="817" type="line"/>
      <point x="1092" y="817" type="line"/>
      <point x="1092" y="1151" type="line"/>
      <point x="341" y="1151" type="line"/>
      <point x="341" y="1036" type="line"/>
      <point x="961" y="1034" type="line"/>
    </contour>
    <component base="uc_main_stem" xOffset="7"/>
    <contour>
      <point x="762" y="0" type="move" name="ogonek"/>
    </contour>
    <contour>
      <point x="637" y="1152" type="move" name="top"/>
    </contour>
    <contour>
      <point x="595.0" y="0" type="move" name="bot"/>
    </contour>
    <contour>
      <point x="595.0" y="1152" type="move" name="top"/>
    </contour>
  </outline>
</glyph>
<glyph name="H" format="1">
  <advance width="1417"/>
  <unicode hex="0048"/>
  <outline>
    <contour>
      <point x="350" y="538" type="line"/>
      <point x="1083" y="538" type="line"/>
      <point x="1082" y="667" type="line"/>
      <point x="349" y="667" type="line"/>
    </contour>
    <component base="uc_main_stem" xOffset="752"/>
    <component base="uc_main_stem" xOffset="7"/>
    <contour>
      <point x="719" y="0" type="move" name="bot"/>
    </contour>
    <contour>
      <point x="714" y="1153" type="move" name="top"/>
    </contour>
  </outline>
</glyph>
<glyph name="O" format="1">
  <advance width="1410"/>
  <unicode hex="004F"/>
  <outline>
    <contour>
      <point x="704" y="116" type="curve" smooth="yes"/>
      <point x="460" y="116"/>
      <point x="287" y="307"/>
      <point x="287" y="576" type="curve" smooth="yes"/>
      <point x="287" y="845"/>
      <point x="460" y="1036"/>
      <point x="704" y="1037" type="curve" smooth="yes"/>
      <point x="949" y="1036"/>
      <point x="1122" y="845"/>
      <point x="1122" y="576" type="curve" smooth="yes"/>
      <point x="1122" y="307"/>
      <point x="949" y="116"/>
    </contour>
    <contour>
      <point x="704" y="-18" type="curve" smooth="yes"/>
      <point x="1055" y="-18"/>
      <point x="1300" y="234"/>
      <point x="1300" y="575" type="curve" smooth="yes"/>
      <point x="1300" y="924"/>
      <point x="1057" y="1171"/>
      <point x="703" y="1171" type="curve" smooth="yes"/>
      <point x="350" y="1171"/>
      <point x="110" y="923"/>
      <point x="110" y="575" type="curve" smooth="yes"/>
      <point x="110" y="229"/>
      <point x="353" y="-16"/>
    </contour>
    <contour>
      <point x="757" y="0" type="move" name="ogonek"/>
    </contour>
    <contour>
      <point x="702" y="1153" type="move" name="top"/>
    </contour>
    <contour>
      <point x="705.0" y="0" type="move" name="bot"/>
    </contour>
    <contour>
      <point x="705.0" y="1152" type="move" name="top"/>
    </contour>
  </outline>
</glyph>
<glyph name="P" format="1">
  <advance width="1149"/>
  <unicode hex="0050"/>
  <outline>
    <contour>
      <point x="490" y="472" type="line"/>
      <point x="598" y="472" type="line" smooth="yes"/>
      <point x="887" y="472"/>
      <point x="1068" y="605"/>
      <point x="1068" y="816" type="curve" smooth="yes"/>
      <point x="1068" y="1022"/>
      <point x="916" y="1152"/>
      <point x="675" y="1152" type="curve" smooth="yes"/>
      <point x="341" y="1152" type="line"/>
      <point x="341" y="1036" type="line"/>
      <point x="677" y="1036" type="line" smooth="yes"/>
      <point x="816" y="1036"/>
      <point x="903" y="952"/>
      <point x="903" y="818" type="curve" smooth="yes"/>
      <point x="901" y="670"/>
      <point x="795" y="588"/>
      <point x="628" y="588" type="curve" smooth="yes"/>
      <point x="490" y="588" type="line"/>
    </contour>
    <component base="uc_main_stem" xOffset="7"/>
    <contour>
      <point x="587" y="1152" type="move" name="top"/>
    </contour>
  </outline>
</glyph>
<glyph name="T" format="1">
  <advance width="1095"/>
  <unicode hex="0054"/>
  <outline>
    <contour>
      <point x="64" y="795" type="line"/>
      <point x="203" y="795" type="line"/>
      <point x="203" y="1036" type="line"/>
      <point x="890" y="1036" type="line"/>
      <point x="890" y="795" type="line"/>
      <point x="1031" y="795" type="line"/>
      <point x="1031" y="1152" type="line"/>
      <point x="64" y="1152" type="line"/>
    </contour>
    <component base="uc_main_stem" xOffset="227"/>
    <contour>
      <point x="564" y="0" type="move" name="bot"/>
    </contour>
    <contour>
      <point x="556" y="622" type="move" name="mid"/>
    </contour>
    <contour>
      <point x="558" y="1152" type="move" name="top"/>
    </contour>
  </outline>
</glyph>
<glyph name="W" format="1">
  <advance width="1831"/>
  <unicode hex="0057"/>
  <outline>
    <contour>
      <point x="481" y="0" type="line"/>
      <point x="639" y="0" type="line"/>
      <point x="917" y="949" type="line"/>
      <point x="1202" y="0" type="line"/>
      <point x="1360" y="0" type="line"/>
      <point x="1657" y="1037" type="line"/>
      <point x="1801" y="1037" type="line"/>
      <point x="1801" y="1153" type="line"/>
      <point x="1372" y="1153" type="line"/>
      <point x="1372" y="1037" type="line"/>
      <point x="1502" y="1037" type="line"/>
      <point x="1285" y="210" type="line"/>
      <point x="1023" y="1108" type="line"/>
      <point x="824" y="1108" type="line"/>
      <point x="564" y="210" type="line"/>
      <point x="334" y="1037" type="line"/>
      <point x="471" y="1037" type="line"/>
      <point x="471" y="1153" type="line"/>
      <point x="30" y="1153" type="line"/>
      <point x="30" y="1037" type="line"/>
      <point x="173" y="1037" type="line"/>
    </contour>
    <contour>
      <point x="930" y="1152" type="move" name="top"/>
    </contour>
    <contour>
      <point x="915.5" y="0" type="move" name="bot"/>
    </contour>
    <contour>
      <point x="915.5" y="1152" type="move" name="top"/>
    </contour>
  </outline>
</glyph>
<glyph name="Z" format="1">
  <advance width="1146"/>
  <unicode hex="005A"/>
  <outline>
    <contour>
      <point x="147" y="0" type="line"/>
      <point x="1019" y="0" type="line"/>
      <point x="1019" y="335" type="line"/>
      <point x="890" y="335" type="line"/>
      <point x="890" y="116" type="line"/>
      <point x="342" y="116" type="line"/>
      <point x="1009" y="1041" type="line"/>
      <point x="1009" y="1153" type="line"/>
      <point x="177" y="1153" type="line"/>
      <point x="177" y="818" type="line"/>
      <point x="306" y="818" type="line"/>
      <point x="306" y="1037" type="line"/>
      <point x="804" y="1037" type="line"/>
      <point x="147" y="128" type="line"/>
    </contour>
    <contour>
      <point x="620" y="1153" type="move" name="top"/>
    </contour>
    <contour>
      <point x="573.0" y="0" type="move" name="bot"/>
    </contour>
    <contour>
      <point x="573.0" y="1152" type="move" name="top"/>
    </contour>
  </outline>
</glyph>
<glyph name="a" format="1">
  <advance width="915"/>
  <unicode hex="0061"/>
  <outline>
    <contour>
      <point x="343" y="-18" type="curve" smooth="yes"/>
      <point x="431" y="-18"/>
      <point x="561" y="19"/>
      <point x="621" y="93" type="curve"/>
      <point x="621" y="93"/>
      <point x="623" y="21"/>
      <point x="623" y="0" type="curve"/>
      <point x="889" y="0" type="line"/>
      <point x="889" y="116" type="line"/>
      <point x="756" y="116" type="line"/>
      <point x="756" y="545" type="line" smooth="yes"/>
      <point x="756" y="741"/>
      <point x="603" y="826"/>
      <point x="432" y="826" type="curve" smooth="yes"/>
      <point x="322" y="826"/>
      <point x="205" y="789"/>
      <point x="116" y="731" type="curve"/>
      <point x="169" y="634" type="line"/>
      <point x="261" y="681"/>
      <point x="351" y="705"/>
      <point x="426" y="705" type="curve" smooth="yes"/>
      <point x="533" y="705"/>
      <point x="608" y="655"/>
      <point x="608" y="554" type="curve" smooth="yes"/>
      <point x="608" y="450" type="line"/>
      <point x="540" y="463"/>
      <point x="475" y="470"/>
      <point x="414" y="470" type="curve" smooth="yes"/>
      <point x="210" y="470"/>
      <point x="76" y="405"/>
      <point x="76" y="206" type="curve" smooth="yes"/>
      <point x="76" y="69"/>
      <point x="201" y="-18"/>
    </contour>
    <contour>
      <point x="358" y="93" type="curve" smooth="yes"/>
      <point x="275" y="93"/>
      <point x="216" y="145"/>
      <point x="216" y="222" type="curve" smooth="yes"/>
      <point x="216" y="342"/>
      <point x="298" y="372"/>
      <point x="432" y="372" type="curve" smooth="yes"/>
      <point x="485" y="372"/>
      <point x="582" y="361"/>
      <point x="608" y="356" type="curve"/>
      <point x="608" y="182" type="line"/>
      <point x="545" y="123"/>
      <point x="461" y="93"/>
    </contour>
    <contour>
      <point x="712" y="0" type="move" name="ogonek"/>
    </contour>
    <contour>
      <point x="441" y="804" type="move" name="top"/>
    </contour>
    <contour>
      <point x="457.5" y="0" type="move" name="bot"/>
    </contour>
  </outline>
</glyph>
<glyph name="c" format="1">
  <advance width="951"/>
  <unicode hex="0063"/>
  <outline>
    <contour>
      <point x="495" y="-19" type="curve" smooth="yes"/>
      <point x="656" y="-19"/>
      <point x="786" y="43"/>
      <point x="861" y="157" type="curve"/>
      <point x="772" y="246" type="line"/>
      <point x="711" y="153"/>
      <point x="629" y="103"/>
      <point x="488" y="107" type="curve" smooth="yes"/>
      <point x="330" y="112"/>
      <point x="232" y="233"/>
      <point x="232" y="400" type="curve" smooth="yes"/>
      <point x="232" y="569"/>
      <point x="343" y="695"/>
      <point x="491" y="695" type="curve" smooth="yes"/>
      <point x="626" y="695"/>
      <point x="692" y="629"/>
      <point x="723" y="517" type="curve"/>
      <point x="852" y="517" type="line"/>
      <point x="852" y="804" type="line"/>
      <point x="719" y="804" type="line"/>
      <point x="723" y="713" type="line"/>
      <point x="688" y="783"/>
      <point x="574" y="820"/>
      <point x="483" y="820" type="curve" smooth="yes"/>
      <point x="250" y="820"/>
      <point x="76" y="643"/>
      <point x="76" y="408" type="curve" smooth="yes"/>
      <point x="76" y="160"/>
      <point x="247" y="-19"/>
    </contour>
    <contour>
      <point x="507" y="0" type="move" name="bot"/>
    </contour>
    <contour>
      <point x="493" y="805" type="move" name="top"/>
    </contour>
  </outline>
</glyph>
<glyph name="k" format="1">
  <advance width="1075"/>
  <unicode hex="006B"/>
  <outline>
    <contour>
      <point x="780" y="0" type="line"/>
      <point x="1029" y="0" type="line"/>
      <point x="1029" y="116" type="line"/>
      <point x="840" y="116" type="line"/>
      <point x="534" y="414" type="line"/>
      <point x="869" y="688" type="line"/>
      <point x="1008" y="688" type="line"/>
      <point x="1008" y="804" type="line"/>
      <point x="561" y="804" type="line"/>
      <point x="561" y="688" type="line"/>
      <point x="693" y="688" type="line"/>
      <point x="355" y="417" type="line"/>
    </contour>
    <component base="lc_ascender_stem" xOffset="-6"/>
    <contour>
      <point x="561" y="0" type="move" name="bot"/>
    </contour>
    <contour>
      <point x="537.5" y="804" type="move" name="top"/>
    </contour>
  </outline>
</glyph>
<glyph name="p" format="1">
  <advance width="1068"/>
  <unicode hex="0070"/>
  <outline>
    <component base="lc_descender_stem" xOffset="-2"/>
    <component base="lc_bowl_right" xOffset="-8"/>
    <contour>
      <point x="610" y="805" type="move" name="top"/>
    </contour>
    <contour>
      <point x="534.0" y="0" type="move" name="bot"/>
    </contour>
  </outline>
</glyph>
<glyph name="s" format="1">
  <advance width="855"/>
  <unicode hex="0073"/>
  <outline>
    <contour>
      <point x="486" y="-18" type="curve" smooth="yes"/>
      <point x="636" y="-18"/>
      <point x="777" y="50"/>
      <point x="777" y="227" type="curve" smooth="yes"/>
      <point x="777" y="382"/>
      <point x="678" y="438"/>
      <point x="508" y="476" type="curve" smooth="yes"/>
      <point x="410" y="498" type="line" smooth="yes"/>
      <point x="317" y="519"/>
      <point x="255" y="531"/>
      <point x="259" y="617" type="curve" smooth="yes"/>
      <point x="262" y="680"/>
      <point x="323" y="718"/>
      <point x="413" y="718" type="curve" smooth="yes"/>
      <point x="488" y="718"/>
      <point x="563" y="688"/>
      <point x="611" y="646" type="curve"/>
      <point x="627" y="559" type="line"/>
      <point x="732" y="559" type="line"/>
      <point x="732" y="804" type="line"/>
      <point x="603" y="804" type="line"/>
      <point x="603" y="758" type="line"/>
      <point x="556" y="793"/>
      <point x="483" y="826"/>
      <point x="402" y="826" type="curve" smooth="yes"/>
      <point x="267" y="826"/>
      <point x="114" y="763"/>
      <point x="114" y="606" type="curve" smooth="yes"/>
      <point x="114" y="472"/>
      <point x="205" y="411"/>
      <point x="345" y="381" type="curve" smooth="yes"/>
      <point x="456" y="357" type="line" smooth="yes"/>
      <point x="595" y="327"/>
      <point x="638" y="299"/>
      <point x="636" y="214" type="curve"/>
      <point x="631" y="129"/>
      <point x="560" y="93"/>
      <point x="475" y="93" type="curve" smooth="yes"/>
      <point x="389" y="93"/>
      <point x="298" y="127"/>
      <point x="244" y="191" type="curve"/>
      <point x="234" y="292" type="line"/>
      <point x="118" y="292" type="line"/>
      <point x="118" y="0" type="line"/>
      <point x="249" y="0" type="line"/>
      <point x="249" y="66" type="line"/>
      <point x="315" y="15"/>
      <point x="397" y="-18"/>
    </contour>
    <contour>
      <point x="480" y="0" type="move" name="bot"/>
    </contour>
    <contour>
      <point x="400" y="805" type="move" name="top"/>
    </contour>
  </outline>
</glyph>
<glyph name="t" format="1">
  <advance width="634"/>
  <unicode hex="0074"/>
  <outline>
    <contour>
      <point x="413" y="0" type="curve" smooth="yes"/>
      <point x="557" y="0" type="line"/>
      <point x="557" y="116" type="line"/>
      <point x="433" y="116" type="line" smooth="yes"/>
      <point x="344" y="116"/>
      <point x="329" y="175"/>
      <point x="329" y="289" type="curve" smooth="yes"/>
      <point x="329" y="688" type="line"/>
      <point x="532" y="688" type="line"/>
      <point x="541" y="804" type="line"/>
      <point x="329" y="804" type="line"/>
      <point x="329" y="1095" type="line"/>
      <point x="181" y="1063" type="line"/>
      <point x="181" y="804" type="line"/>
      <point x="54" y="804" type="line"/>
      <point x="54" y="688" type="line"/>
      <point x="181" y="688" type="line"/>
      <point x="181" y="300" type="line" smooth="yes"/>
      <point x="181" y="95"/>
      <point x="227" y="0"/>
    </contour>
    <contour>
      <point x="388" y="10" type="move" name="bot"/>
    </contour>
    <contour>
      <point x="300" y="503" type="move" name="mid"/>
    </contour>
  </outline>
</glyph>
<glyph name="sterling" format="1">
  <advance width="993"/>
  <unicode hex="00A3"/>
  <outline>
    <contour>
      <point x="224" y="-17" type="curve" smooth="yes"/>
      <point x="306" y="-17"/>
      <point x="396" y="26"/>
      <point x="447" y="109" type="curve"/>
      <point x="556" y="29"/>
      <point x="657" y="-15"/>
      <point x="738" y="-15" type="curve" smooth="yes"/>
      <point x="852.15" y="-15"/>
      <point x="927.654" y="70.5736"/>
      <point x="933.619" y="264.67" type="curve" smooth="yes"/>
      <point x="933.872" y="272.917"/>
      <point x="934" y="281.359"/>
      <point x="934" y="290" type="curve"/>
      <point x="841" y="290" type="line"/>
      <point x="832" y="166"/>
      <point x="789" y="118"/>
      <point x="722" y="118" type="curve" smooth="yes"/>
      <point x="664" y="118"/>
      <point x="590" y="153"/>
      <point x="503" y="205" type="curve"/>
      <point x="529" y="257"/>
      <point x="542" y="309"/>
      <point x="542" y="363" type="curve" smooth="yes"/>
      <point x="542" y="419"/>
      <point x="528" y="477"/>
      <point x="502" y="535" type="curve"/>
      <point x="818" y="535" type="line"/>
      <point x="818" y="640" type="line"/>
      <point x="452" y="640" type="line"/>
      <point x="414" y="715"/>
      <point x="371" y="779"/>
      <point x="371" y="886" type="curve" smooth="yes"/>
      <point x="371" y="996"/>
      <point x="461" y="1052"/>
      <point x="579" y="1052" type="curve" smooth="yes"/>
      <point x="694" y="1052"/>
      <point x="752" y="989"/>
      <point x="752" y="863" type="curve"/>
      <point x="887" y="863" type="line"/>
      <point x="884" y="1065"/>
      <point x="768" y="1171"/>
      <point x="572" y="1171" type="curve" smooth="yes"/>
      <point x="362" y="1171"/>
      <point x="229" y="1057"/>
      <point x="229" y="850" type="curve" smooth="yes"/>
      <point x="229" y="793"/>
      <point x="249" y="723"/>
      <point x="290" y="640" type="curve"/>
      <point x="132" y="640" type="line"/>
      <point x="132" y="535" type="line"/>
      <point x="345" y="535" type="line"/>
      <point x="399" y="446"/>
      <point x="429" y="372"/>
      <point x="429" y="307" type="curve" smooth="yes"/>
      <point x="429" y="290"/>
      <point x="427" y="273"/>
      <point x="422" y="256" type="curve"/>
      <point x="357" y="306"/>
      <point x="285" y="332"/>
      <point x="222" y="332" type="curve" smooth="yes"/>
      <point x="126" y="332"/>
      <point x="51" y="273"/>
      <point x="51" y="151" type="curve" smooth="yes"/>
      <point x="51" y="38"/>
      <point x="132" y="-17"/>
    </contour>
    <contour>
      <point x="234" y="79" type="curve" smooth="yes"/>
      <point x="192" y="79"/>
      <point x="158" y="102"/>
      <point x="158" y="149" type="curve" smooth="yes"/>
      <point x="158" y="204.038"/>
      <point x="189.492" y="229"/>
      <point x="231" y="229" type="curve" smooth="yes"/>
      <point x="273" y="229"/>
      <point x="326" y="206"/>
      <point x="372" y="168" type="curve"/>
      <point x="339" y="108"/>
      <point x="281" y="79"/>
    </contour>
  </outline>
</glyph>
<glyph name="section" format="1">
  <advance width="877"/>
  <unicode hex="00A7"/>
  <outline>
    <contour>
      <point x="135" y="-68" type="curve" smooth="yes"/>
      <point x="135" y="-177"/>
      <point x="245" y="-306"/>
      <point x="481" y="-306" type="curve" smooth="yes"/>
      <point x="648" y="-306"/>
      <point x="781" y="-190"/>
      <point x="781" y="-21" type="curve" smooth="yes"/>
      <point x="781" y="66"/>
      <point x="737" y="136"/>
      <point x="650" y="187" type="curve"/>
      <point x="756" y="254"/>
      <point x="809" y="336"/>
      <point x="809" y="433" type="curve" smooth="yes"/>
      <point x="809" y="586"/>
      <point x="664.75" y="641.75"/>
      <point x="523.625" y="693.125" type="curve" smooth="yes"/>
      <point x="388" y="742"/>
      <point x="256" y="788"/>
      <point x="256" y="910" type="curve" smooth="yes"/>
      <point x="256" y="1021"/>
      <point x="352" y="1068"/>
      <point x="466" y="1068" type="curve" smooth="yes"/>
      <point x="579" y="1068"/>
      <point x="684" y="974"/>
      <point x="730" y="832" type="curve"/>
      <point x="777" y="847"/>
      <point x="804" y="890"/>
      <point x="804" y="942" type="curve" smooth="yes"/>
      <point x="804" y="1047"/>
      <point x="698" y="1185"/>
      <point x="448" y="1185" type="curve" smooth="yes"/>
      <point x="276" y="1185"/>
      <point x="118" y="1077"/>
      <point x="118" y="913" type="curve" smooth="yes"/>
      <point x="118" y="815"/>
      <point x="161" y="740"/>
      <point x="248" y="688" type="curve"/>
      <point x="161" y="630"/>
      <point x="88" y="566"/>
      <point x="88" y="445" type="curve" smooth="yes"/>
      <point x="88" y="287.5"/>
      <point x="229.25" y="233.25"/>
      <point x="368.875" y="183.25" type="curve" smooth="yes"/>
      <point x="508.5" y="133.25"/>
      <point x="646.5" y="87.5"/>
      <point x="640" y="-53" type="curve" smooth="yes"/>
      <point x="636" y="-133"/>
      <point x="553" y="-183"/>
      <point x="468" y="-183" type="curve" smooth="yes"/>
      <point x="357" y="-183"/>
      <point x="253" y="-88"/>
      <point x="207" y="55" type="curve"/>
      <point x="159" y="29"/>
      <point x="135" y="-17"/>
    </contour>
    <contour>
      <point x="560" y="234" type="curve"/>
      <point x="489.379" y="262.958"/>
      <point x="430.195" y="283.883"/>
      <point x="381.856" y="302.554" type="curve" smooth="yes"/>
      <point x="266.605" y="347.071"/>
      <point x="213" y="378.777"/>
      <point x="213" y="476" type="curve" smooth="yes"/>
      <point x="213" y="563"/>
      <point x="265" y="601"/>
      <point x="331" y="640" type="curve"/>
      <point x="397.088" y="611.253"/>
      <point x="455.096" y="590.235"/>
      <point x="504.008" y="571.454" type="curve" smooth="yes"/>
      <point x="620.14" y="526.863"/>
      <point x="685" y="494.881"/>
      <point x="685" y="402" type="curve" smooth="yes"/>
      <point x="685" y="333"/>
      <point x="643" y="277"/>
    </contour>
  </outline>
</glyph>
<glyph name="twosuperior" format="1">
  <advance width="900"/>
  <unicode hex="00B2"/>
  <outline>
    <contour>
      <point x="174" y="455" type="line"/>
      <point x="790" y="455" type="line"/>
      <point x="788" y="727" type="line"/>
      <point x="674" y="727" type="line"/>
      <point x="673" y="561" type="line"/>
      <point x="345" y="561" type="line"/>
      <point x="542" y="747" type="line" smooth="yes"/>
      <point x="642" y="841"/>
      <point x="766" y="951"/>
      <point x="766" y="1079" type="curve" smooth="yes"/>
      <point x="766" y="1235"/>
      <point x="665" y="1335"/>
      <point x="476" y="1335" type="curve" smooth="yes"/>
      <point x="279" y="1335"/>
      <point x="159" y="1222"/>
      <point x="159" y="1067" type="curve" smooth="yes"/>
      <point x="159" y="1033"/>
      <point x="165" y="997"/>
      <point x="177" y="960" type="curve"/>
      <point x="307" y="960" type="line"/>
      <point x="299" y="992"/>
      <point x="295" y="1022"/>
      <point x="295" y="1049" type="curve" smooth="yes"/>
      <point x="295" y="1160"/>
      <point x="360" y="1223"/>
      <point x="478" y="1223" type="curve" smooth="yes"/>
      <point x="590" y="1223"/>
      <point x="622" y="1153"/>
      <point x="625" y="1077" type="curve" smooth="yes"/>
      <point x="629" y="1002"/>
      <point x="531" y="912"/>
      <point x="449" y="832" type="curve" smooth="yes"/>
      <point x="174" y="565" type="line"/>
    </contour>
  </outline>
</glyph>
<glyph name="threesuperior" format="1">
  <advance width="900"/>
  <unicode hex="00B3"/>
  <outline>
    <contour>
      <point x="483" y="439" type="curve" smooth="yes"/>
      <point x="685" y="439"/>
      <point x="811" y="546"/>
      <point x="811" y="713" type="curve" smooth="yes"/>
      <point x="811" y="822"/>
      <point x="738" y="884"/>
      <point x="622" y="912" type="curve"/>
      <point x="716" y="940"/>
      <point x="775" y="1011"/>
      <point x="775" y="1106" type="curve" smooth="yes"/>
      <point x="775" y="1241"/>
      <point x="654" y="1335"/>
      <point x="473" y="1335" type="curve" smooth="yes"/>
      <point x="325" y="1335"/>
      <point x="206" y="1266"/>
      <point x="155" y="1158" type="curve"/>
      <point x="274" y="1101" type="line"/>
      <point x="300" y="1174"/>
      <point x="371" y="1220"/>
      <point x="470" y="1220" type="curve" smooth="yes"/>
      <point x="563" y="1220"/>
      <point x="629" y="1169"/>
      <point x="629" y="1104" type="curve" smooth="yes"/>
      <point x="629" y="1019.08"/>
      <point x="583.597" y="968.884"/>
      <point x="428.95" y="963.486" type="curve"/>
      <point x="436.941" y="847.395" type="line"/>
      <point x="589.951" y="842.121"/>
      <point x="652.429" y="801.927"/>
      <point x="658" y="710" type="curve" smooth="yes"/>
      <point x="663" y="615"/>
      <point x="591" y="555"/>
      <point x="484" y="555" type="curve" smooth="yes"/>
      <point x="382" y="555"/>
      <point x="311" y="603"/>
      <point x="277" y="689" type="curve"/>
      <point x="159" y="625" type="line"/>
      <point x="195" y="512"/>
      <point x="320" y="439"/>
    </contour>
  </outline>
</glyph>
<glyph name="acute" format="1">
  <advance width="562"/>
  <unicode hex="00B4"/>
  <outline>
    <contour>
      <point x="165" y="914" type="line"/>
      <point x="284" y="914" type="line"/>
      <point x="471" y="1171" type="line"/>
      <point x="264" y="1171" type="line"/>
    </contour>
    <contour>
      <point x="239" y="805" type="move" name="_top"/>
    </contour>
    <contour>
      <point x="281.0" y="804" type="move" name="_top"/>
    </contour>
    <contour>
      <point x="281.0" y="804" type="move" name="_top"/>
    </contour>
  </outline>
</glyph>
<glyph name="cedilla" format="1">
  <advance width="587"/>
  <unicode hex="00B8"/>
  <outline>
    <contour>
      <point x="230" y="-391" type="curve" smooth="yes"/>
      <point x="330" y="-391"/>
      <point x="380" y="-331"/>
      <point x="380" y="-268" type="curve" smooth="yes"/>
      <point x="380" y="-202.962"/>
      <point x="284.967" y="-137.14"/>
      <point x="248" y="-130" type="curve"/>
      <point x="272" y="6" type="line"/>
      <point x="206" y="6" type="line"/>
      <point x="152" y="-148" type="line"/>
      <point x="204.06" y="-154.087"/>
      <point x="264" y="-195.771"/>
      <point x="264" y="-237" type="curve" smooth="yes"/>
      <point x="264" y="-276"/>
      <point x="230" y="-312"/>
      <point x="171" y="-312" type="curve" smooth="yes"/>
      <point x="146" y="-312"/>
      <point x="108" y="-303"/>
      <point x="75" y="-287" type="curve"/>
      <point x="75" y="-345" type="line"/>
      <point x="133" y="-378"/>
      <point x="185" y="-391"/>
    </contour>
    <contour>
      <point x="244" y="0" type="move" name="_bot"/>
    </contour>
    <contour>
      <point x="293.5" y="0" type="move" name="_bot"/>
    </contour>
  </outline>
</glyph>
<glyph name="threequarters" format="1">
  <advance width="1936"/>
  <unicode hex="00BE"/>
  <outline>
    <contour>
      <point x="437" y="330" type="curve" smooth="yes"/>
      <point x="598" y="330"/>
      <point x="714" y="421"/>
      <point x="714" y="581" type="curve" smooth="yes"/>
      <point x="714" y="679"/>
      <point x="640" y="748"/>
      <point x="539" y="768" type="curve"/>
      <point x="630" y="794"/>
      <point x="682" y="862"/>
      <point x="682" y="945" type="curve"/>
      <point x="678" y="1094"/>
      <point x="583" y="1173"/>
      <point x="418" y="1174" type="curve" smooth="yes"/>
      <point x="268" y="1175"/>
      <point x="182" y="1102"/>
      <point x="137" y="992" type="curve"/>
      <point x="222" y="953" type="line"/>
      <point x="247" y="1046"/>
      <point x="313" y="1091"/>
      <point x="420" y="1091" type="curve" smooth="yes"/>
      <point x="526" y="1091"/>
      <point x="584" y="1042"/>
      <point x="584" y="941" type="curve" smooth="yes"/>
      <point x="584" y="854.896"/>
      <point x="538.451" y="807.333"/>
      <point x="388.327" y="801.59" type="curve"/>
      <point x="389.271" y="728.484" type="line"/>
      <point x="556.835" y="723.039"/>
      <point x="609.179" y="674.145"/>
      <point x="612" y="566" type="curve" smooth="yes"/>
      <point x="612" y="472"/>
      <point x="547" y="413"/>
      <point x="437" y="413" type="curve" smooth="yes"/>
      <point x="334" y="413"/>
      <point x="268" y="456"/>
      <point x="229" y="542" type="curve"/>
      <point x="156" y="492" type="line"/>
      <point x="201" y="386"/>
      <point x="294" y="330"/>
    </contour>
    <contour>
      <point x="1411" y="0" type="line"/>
      <point x="1778" y="0" type="line"/>
      <point x="1778" y="80" type="line"/>
      <point x="1658" y="80" type="line"/>
      <point x="1658" y="254" type="line"/>
      <point x="1811" y="254" type="line"/>
      <point x="1811" y="329" type="line"/>
      <point x="1658" y="329" type="line"/>
      <point x="1658" y="804" type="line"/>
      <point x="1556" y="804" type="line"/>
      <point x="1181" y="329" type="line"/>
      <point x="1181" y="254" type="line"/>
      <point x="1553" y="254" type="line"/>
      <point x="1553" y="80" type="line"/>
      <point x="1411" y="80" type="line"/>
    </contour>
    <contour>
      <point x="613" y="0" type="line"/>
      <point x="714" y="0" type="line"/>
      <point x="1488" y="1152" type="line"/>
      <point x="1390" y="1152" type="line"/>
    </contour>
    <contour>
      <point x="1289" y="329" type="line"/>
      <point x="1553" y="678" type="line"/>
      <point x="1553" y="329" type="line"/>
    </contour>
  </outline>
</glyph>
<glyph name="hcircumflex" format="1">
  <advance width="1078"/>
  <unicode hex="0125"/>
  <outline>
    <component base="h"/>
    <component base="circumflex" xOffset="383" yOffset="201"/>
    <contour>
      <point x="674" y="1115" type="move" name="top"/>
    </contour>
  </outline>
</glyph>
<glyph name="dotlessi" format="1">
  <advance width="588"/>
  <unicode hex="0131"/>
  <outline>
    <contour>
      <point x="117" y="0" type="line"/>
      <point x="537" y="0" type="line"/>
      <point x="537" y="113" type="line"/>
      <point x="401" y="113" type="line"/>
      <point x="401" y="804" type="line"/>
      <point x="117" y="804" type="line"/>
      <point x="117" y="689" type="line"/>
      <point x="252" y="689" type="line"/>
      <point x="252" y="113" type="line"/>
      <point x="117" y="113" type="line"/>
    </contour>
    <contour>
      <point x="294" y="804" type="move" name="top"/>
    </contour>
  </outline>
</glyph>
<glyph name="Lslash" format="1">
  <advance width="1005"/>
  <unicode hex="0141"/>
  <outline>
    <contour>
      <point x="90" y="440" type="line"/>
      <point x="567" y="697" type="line"/>
      <point x="567" y="826" type="line"/>
      <point x="90" y="569" type="line"/>
    </contour>
    <component base="L"/>
  </outline>
</glyph>
<glyph name="florin" format="1">
  <advance width="916"/>
  <unicode hex="0192"/>
  <outline>
    <contour>
      <point x="-54" y="-245" type="line"/>
      <point x="-20.9678635765" y="-254.589975091"/>
      <point x="12.1761909928" y="-258.772873336"/>
      <point x="44.7322158422" y="-257.742475877" type="curve" smooth="yes"/>
      <point x="206.95270585" y="-252.608200991"/>
      <point x="354.573360723" y="-118.036152402"/>
      <point x="401" y="122" type="curve" smooth="yes"/>
      <point x="514" y="698" type="line"/>
      <point x="727" y="698" type="line"/>
      <point x="744" y="782" type="line"/>
      <point x="532" y="782" type="line"/>
      <point x="565" y="954" type="line" smooth="yes"/>
      <point x="585" y="1054"/>
      <point x="607" y="1152"/>
      <point x="705" y="1152" type="curve" smooth="yes"/>
      <point x="757" y="1152"/>
      <point x="783" y="1102"/>
      <point x="783" y="1001" type="curve"/>
      <point x="916" y="1001" type="line"/>
      <point x="916" y="1187"/>
      <point x="814" y="1234"/>
      <point x="698" y="1234" type="curve" smooth="yes"/>
      <point x="517" y="1234"/>
      <point x="433" y="1104"/>
      <point x="400" y="941" type="curve" smooth="yes"/>
      <point x="369" y="782" type="line"/>
      <point x="207" y="782" type="line"/>
      <point x="190" y="698" type="line"/>
      <point x="355" y="698" type="line"/>
      <point x="241" y="123" type="line" smooth="yes"/>
      <point x="210.971072117" y="-28.1785505917"/>
      <point x="225.797426051" y="-174.556982567"/>
      <point x="47.9641753216" y="-171.109158287" type="curve" smooth="yes"/>
      <point x="23.748426097" y="-170.639664265"/>
      <point x="-4.03972699714" y="-167.39200666"/>
      <point x="-36" y="-161" type="curve"/>
    </contour>
  </outline>
</glyph>
<glyph name="uni0237" format="1">
  <advance width="559"/>
  <unicode hex="0237"/>
  <outline>
    <contour>
      <point x="40" y="-303" type="line"/>
      <point x="131" y="-303" type="line" smooth="yes"/>
      <point x="352" y="-303"/>
      <point x="414" y="-221"/>
      <point x="414" y="19" type="curve" smooth="yes"/>
      <point x="414" y="805" type="line"/>
      <point x="72" y="805" type="line"/>
      <point x="72" y="689" type="line"/>
      <point x="266" y="689" type="line"/>
      <point x="266" y="-8" type="line" smooth="yes"/>
      <point x="266" y="-113"/>
      <point x="248" y="-179"/>
      <point x="147" y="-179" type="curve" smooth="yes"/>
      <point x="40" y="-179" type="line"/>
    </contour>
    <contour>
      <point x="253" y="804" type="move" name="top"/>
    </contour>
  </outline>
</glyph>
<glyph name="circumflex" format="1">
  <advance width="593"/>
  <unicode hex="02C6"/>
  <outline>
    <contour>
      <point x="58" y="896" type="line"/>
      <point x="201" y="896" type="line"/>
      <point x="294" y="1126" type="line"/>
      <point x="387" y="896" type="line"/>
      <point x="535" y="896" type="line"/>
      <point x="431" y="1171" type="line"/>
      <point x="156" y="1171" type="line"/>
    </contour>
    <contour>
      <point x="294" y="804" type="move" name="_top"/>
    </contour>
  </outline>
</glyph>
<glyph name="breve" format="1">
  <advance width="584"/>
  <unicode hex="02D8"/>
  <outline>
    <contour>
      <point x="292" y="940" type="curve" smooth="yes"/>
      <point x="441" y="940"/>
      <point x="534" y="1029"/>
      <point x="546" y="1153" type="curve"/>
      <point x="421" y="1153" type="line"/>
      <point x="411" y="1082"/>
      <point x="353" y="1047"/>
      <point x="294" y="1047" type="curve" smooth="yes"/>
      <point x="235" y="1047"/>
      <point x="174" y="1082"/>
      <point x="162" y="1153" type="curve"/>
      <point x="38" y="1153" type="line"/>
      <point x="48" y="1024"/>
      <point x="154" y="940"/>
    </contour>
    <contour>
      <point x="297" y="805" type="move" name="_top"/>
    </contour>
    <contour>
      <point x="292.0" y="804" type="move" name="_top"/>
    </contour>
  </outline>
</glyph>
<glyph name="ring" format="1">
  <advance width="501"/>
  <unicode hex="02DA"/>
  <outline>
    <contour>
      <point x="251" y="986" type="curve" smooth="yes"/>
      <point x="202" y="986"/>
      <point x="152" y="1020"/>
      <point x="151" y="1087" type="curve"/>
      <point x="151" y="1154"/>
      <point x="200" y="1187"/>
      <point x="249" y="1187" type="curve" smooth="yes"/>
      <point x="299" y="1187"/>
      <point x="348" y="1154"/>
      <point x="348" y="1087" type="curve" smooth="yes"/>
      <point x="348" y="1019"/>
      <point x="300" y="986"/>
    </contour>
    <contour>
      <point x="250" y="926" type="curve" smooth="yes"/>
      <point x="340" y="927"/>
      <point x="419" y="994"/>
      <point x="419" y="1085" type="curve" smooth="yes"/>
      <point x="419" y="1177"/>
      <point x="344" y="1247"/>
      <point x="250" y="1246" type="curve" smooth="yes"/>
      <point x="157" y="1247"/>
      <point x="82" y="1179"/>
      <point x="82" y="1087" type="curve" smooth="yes"/>
      <point x="82" y="995"/>
      <point x="158" y="926"/>
    </contour>
    <contour>
      <point x="285" y="813" type="move" name="_top"/>
    </contour>
    <contour>
      <point x="250.5" y="804" type="move" name="_top"/>
    </contour>
  </outline>
</glyph>
<glyph name="uni0311" format="1">
  <advance width="584"/>
  <unicode hex="0311"/>
  <outline>
    <contour>
      <point x="74" y="940" type="curve"/>
      <point x="184" y="940" type="line"/>
      <point x="198" y="1021"/>
      <point x="232" y="1058"/>
      <point x="292" y="1058" type="curve" smooth="yes"/>
      <point x="351" y="1058"/>
      <point x="384" y="1021"/>
      <point x="395" y="940" type="curve"/>
      <point x="506" y="940" type="line"/>
      <point x="491" y="1074"/>
      <point x="423" y="1152"/>
      <point x="292" y="1153" type="curve" smooth="yes"/>
      <point x="156" y="1152"/>
      <point x="87" y="1074"/>
    </contour>
    <contour>
      <point x="299" y="804" type="move" name="_top"/>
    </contour>
  </outline>
</glyph>
<glyph name="daggerdbl" format="1">
  <advance width="918"/>
  <unicode hex="2021"/>
  <outline>
    <contour>
      <point x="389" y="-111" type="line"/>
      <point x="531" y="-111" type="line"/>
      <point x="490" y="176" type="line"/>
      <point x="739" y="136" type="line"/>
      <point x="739" y="267" type="line"/>
      <point x="490" y="224" type="line"/>
      <point x="490" y="881" type="line"/>
      <point x="739" y="839" type="line"/>
      <point x="739" y="970" type="line"/>
      <point x="490" y="930" type="line"/>
      <point x="531" y="1216" type="line"/>
      <point x="389" y="1216" type="line"/>
      <point x="428" y="930" type="line"/>
      <point x="179" y="970" type="line"/>
      <point x="179" y="839" type="line"/>
      <point x="428" y="881" type="line"/>
      <point x="428" y="224" type="line"/>
      <point x="179" y="267" type="line"/>
      <point x="179" y="136" type="line"/>
      <point x="428" y="176" type="line"/>
    </contour>
  </outline>
</glyph>
<glyph name="partialdiff" format="1">
  <advance width="907"/>
  <unicode hex="2202"/>
  <outline>
    <contour>
      <point x="363" y="-22" type="curve" smooth="yes"/>
      <point x="720" y="-22"/>
      <point x="850" y="419"/>
      <point x="850" y="717" type="curve" smooth="yes"/>
      <point x="850" y="1039"/>
      <point x="718" y="1230"/>
      <point x="458" y="1230" type="curve" smooth="yes"/>
      <point x="293" y="1230"/>
      <point x="199" y="1157"/>
      <point x="199" y="1052" type="curve" smooth="yes"/>
      <point x="199" y="988"/>
      <point x="248" y="930"/>
      <point x="381" y="930" type="curve"/>
      <point x="381" y="1016"/>
      <point x="438" y="1122"/>
      <point x="550" y="1122" type="curve" smooth="yes"/>
      <point x="682" y="1122"/>
      <point x="751" y="954"/>
      <point x="751" y="722" type="curve" smooth="yes"/>
      <point x="751" y="703"/>
      <point x="749" y="667"/>
      <point x="745" y="645" type="curve"/>
      <point x="737" y="645" type="line"/>
      <point x="698" y="719"/>
      <point x="631" y="758"/>
      <point x="523" y="758" type="curve" smooth="yes"/>
      <point x="198" y="758"/>
      <point x="73" y="453"/>
      <point x="73" y="273" type="curve" smooth="yes"/>
      <point x="73" y="120"/>
      <point x="146" y="-22"/>
    </contour>
    <contour>
      <point x="456" y="89" type="curve" smooth="yes"/>
      <point x="376" y="89"/>
      <point x="330" y="155"/>
      <point x="330" y="261" type="curve" smooth="yes"/>
      <point x="330" y="406"/>
      <point x="406" y="655"/>
      <point x="581" y="655" type="curve" smooth="yes"/>
      <point x="661" y="655"/>
      <point x="702" y="585"/>
      <point x="722" y="505" type="curve"/>
      <point x="690" y="287"/>
      <point x="573" y="89"/>
    </contour>
  </outline>
</glyph>
<glyph name="ffl" format="1">
  <advance width="1773"/>
  <outline>
    <contour>
      <point x="80" y="0" type="line"/>
      <point x="531" y="0" type="line"/>
      <point x="531" y="116" type="line"/>
      <point x="369" y="116" type="line"/>
      <point x="369" y="688" type="line"/>
      <point x="721" y="688" type="line"/>
      <point x="721" y="804" type="line"/>
      <point x="369" y="804" type="line"/>
      <point x="369" y="934" type="line" smooth="yes"/>
      <point x="369" y="1148"/>
      <point x="666" y="1128"/>
      <point x="873" y="990" type="curve"/>
      <point x="926" y="1082" type="line"/>
      <point x="690" y="1270"/>
      <point x="221" y="1264"/>
      <point x="221" y="943" type="curve" smooth="yes"/>
      <point x="221" y="804" type="line"/>
      <point x="92" y="804" type="line"/>
      <point x="92" y="688" type="line"/>
      <point x="221" y="688" type="line"/>
      <point x="221" y="116" type="line"/>
      <point x="80" y="116" type="line"/>
    </contour>
    <component base="fl" xOffset="600"/>
  </outline>
</glyph>
<glyph name="lc_ascender_stem" format="1">
  <advance width="1120"/>
  <outline>
    <contour>
      <point x="74" y="0" type="line"/>
      <point x="520" y="0" type="line"/>
      <point x="520" y="116" type="line"/>
      <point x="374" y="116" type="line"/>
      <point x="374" y="1174" type="line"/>
      <point x="76" y="1174" type="line"/>
      <point x="76" y="1058" type="line"/>
      <point x="226" y="1058" type="line"/>
      <point x="226" y="116" type="line"/>
      <point x="74" y="116" type="line"/>
    </contour>
  </outline>
</glyph>
